<mxfile host="app.diagrams.net" agent="Mozilla/5.0 (Macintosh; Intel Mac OS X 10_15_7) AppleWebKit/605.1.15 (KHTML, like Gecko) Version/17.5 Safari/605.1.15" version="24.8.6">
  <diagram name="Page-1" id="8USO1j2QwfejLq4ZPVDU">
    <mxGraphModel dx="1440" dy="961" grid="1" gridSize="10" guides="1" tooltips="1" connect="1" arrows="1" fold="1" page="1" pageScale="1" pageWidth="827" pageHeight="1169" math="0" shadow="0">
      <root>
        <mxCell id="0" />
        <mxCell id="1" parent="0" />
        <mxCell id="8CifRftzyipBCGloAxg9-1" value="AUCTION CREATION FLOW" style="text;strokeColor=none;fillColor=none;html=1;fontSize=24;fontStyle=1;verticalAlign=middle;align=center;" vertex="1" parent="1">
          <mxGeometry x="149" y="40" width="100" height="40" as="geometry" />
        </mxCell>
        <mxCell id="8CifRftzyipBCGloAxg9-2" value="" style="shape=umlLifeline;perimeter=lifelinePerimeter;whiteSpace=wrap;html=1;container=1;dropTarget=0;collapsible=0;recursiveResize=0;outlineConnect=0;portConstraint=eastwest;newEdgeStyle={&quot;curved&quot;:0,&quot;rounded&quot;:0};participant=umlActor;" vertex="1" parent="1">
          <mxGeometry x="69" y="170" width="20" height="790" as="geometry" />
        </mxCell>
        <mxCell id="8CifRftzyipBCGloAxg9-34" value="" style="html=1;points=[[0,0,0,0,5],[0,1,0,0,-5],[1,0,0,0,5],[1,1,0,0,-5]];perimeter=orthogonalPerimeter;outlineConnect=0;targetShapes=umlLifeline;portConstraint=eastwest;newEdgeStyle={&quot;curved&quot;:0,&quot;rounded&quot;:0};" vertex="1" parent="8CifRftzyipBCGloAxg9-2">
          <mxGeometry x="6" y="70" width="10" height="630" as="geometry" />
        </mxCell>
        <mxCell id="8CifRftzyipBCGloAxg9-3" value="" style="shape=umlLifeline;perimeter=lifelinePerimeter;whiteSpace=wrap;html=1;container=1;dropTarget=0;collapsible=0;recursiveResize=0;outlineConnect=0;portConstraint=eastwest;newEdgeStyle={&quot;curved&quot;:0,&quot;rounded&quot;:0};participant=umlBoundary;" vertex="1" parent="1">
          <mxGeometry x="249" y="170" width="50" height="790" as="geometry" />
        </mxCell>
        <mxCell id="8CifRftzyipBCGloAxg9-36" value="" style="html=1;points=[[0,0,0,0,5],[0,1,0,0,-5],[1,0,0,0,5],[1,1,0,0,-5]];perimeter=orthogonalPerimeter;outlineConnect=0;targetShapes=umlLifeline;portConstraint=eastwest;newEdgeStyle={&quot;curved&quot;:0,&quot;rounded&quot;:0};" vertex="1" parent="8CifRftzyipBCGloAxg9-3">
          <mxGeometry x="20" y="70" width="10" height="590" as="geometry" />
        </mxCell>
        <mxCell id="8CifRftzyipBCGloAxg9-4" value="" style="shape=umlLifeline;perimeter=lifelinePerimeter;whiteSpace=wrap;html=1;container=1;dropTarget=0;collapsible=0;recursiveResize=0;outlineConnect=0;portConstraint=eastwest;newEdgeStyle={&quot;curved&quot;:0,&quot;rounded&quot;:0};participant=umlControl;" vertex="1" parent="1">
          <mxGeometry x="469" y="170" width="40" height="790" as="geometry" />
        </mxCell>
        <mxCell id="8CifRftzyipBCGloAxg9-37" value="" style="html=1;points=[[0,0,0,0,5],[0,1,0,0,-5],[1,0,0,0,5],[1,1,0,0,-5]];perimeter=orthogonalPerimeter;outlineConnect=0;targetShapes=umlLifeline;portConstraint=eastwest;newEdgeStyle={&quot;curved&quot;:0,&quot;rounded&quot;:0};" vertex="1" parent="8CifRftzyipBCGloAxg9-4">
          <mxGeometry x="15" y="90" width="10" height="490" as="geometry" />
        </mxCell>
        <mxCell id="8CifRftzyipBCGloAxg9-5" value="" style="shape=umlLifeline;perimeter=lifelinePerimeter;whiteSpace=wrap;html=1;container=1;dropTarget=0;collapsible=0;recursiveResize=0;outlineConnect=0;portConstraint=eastwest;newEdgeStyle={&quot;curved&quot;:0,&quot;rounded&quot;:0};participant=umlEntity;" vertex="1" parent="1">
          <mxGeometry x="659" y="170" width="40" height="790" as="geometry" />
        </mxCell>
        <mxCell id="8CifRftzyipBCGloAxg9-38" value="" style="html=1;points=[[0,0,0,0,5],[0,1,0,0,-5],[1,0,0,0,5],[1,1,0,0,-5]];perimeter=orthogonalPerimeter;outlineConnect=0;targetShapes=umlLifeline;portConstraint=eastwest;newEdgeStyle={&quot;curved&quot;:0,&quot;rounded&quot;:0};" vertex="1" parent="8CifRftzyipBCGloAxg9-5">
          <mxGeometry x="14.5" y="101" width="10" height="469" as="geometry" />
        </mxCell>
        <mxCell id="8CifRftzyipBCGloAxg9-6" value="" style="shape=umlLifeline;perimeter=lifelinePerimeter;whiteSpace=wrap;html=1;container=1;dropTarget=0;collapsible=0;recursiveResize=0;outlineConnect=0;portConstraint=eastwest;newEdgeStyle={&quot;curved&quot;:0,&quot;rounded&quot;:0};participant=umlControl;" vertex="1" parent="1">
          <mxGeometry x="859" y="168" width="40" height="790" as="geometry" />
        </mxCell>
        <mxCell id="8CifRftzyipBCGloAxg9-7" value="Seller" style="text;html=1;align=center;verticalAlign=middle;resizable=0;points=[];autosize=1;strokeColor=none;fillColor=none;" vertex="1" parent="1">
          <mxGeometry x="54" y="140" width="50" height="30" as="geometry" />
        </mxCell>
        <mxCell id="8CifRftzyipBCGloAxg9-8" value="CreateAuctionPage" style="text;html=1;align=center;verticalAlign=middle;resizable=0;points=[];autosize=1;strokeColor=none;fillColor=none;" vertex="1" parent="1">
          <mxGeometry x="219" y="140" width="130" height="30" as="geometry" />
        </mxCell>
        <mxCell id="8CifRftzyipBCGloAxg9-9" value="AuctionController" style="text;html=1;align=center;verticalAlign=middle;resizable=0;points=[];autosize=1;strokeColor=none;fillColor=none;" vertex="1" parent="1">
          <mxGeometry x="429" y="140" width="120" height="30" as="geometry" />
        </mxCell>
        <mxCell id="8CifRftzyipBCGloAxg9-10" value="AuctionListing" style="text;html=1;align=center;verticalAlign=middle;resizable=0;points=[];autosize=1;strokeColor=none;fillColor=none;" vertex="1" parent="1">
          <mxGeometry x="629" y="138" width="100" height="30" as="geometry" />
        </mxCell>
        <mxCell id="8CifRftzyipBCGloAxg9-11" value="TimerController" style="text;html=1;align=center;verticalAlign=middle;resizable=0;points=[];autosize=1;strokeColor=none;fillColor=none;" vertex="1" parent="1">
          <mxGeometry x="824" y="140" width="110" height="30" as="geometry" />
        </mxCell>
        <mxCell id="8CifRftzyipBCGloAxg9-15" value="Create new auction" style="html=1;verticalAlign=bottom;endArrow=block;curved=0;rounded=0;" edge="1" parent="1" source="8CifRftzyipBCGloAxg9-2" target="8CifRftzyipBCGloAxg9-3">
          <mxGeometry width="80" relative="1" as="geometry">
            <mxPoint x="109" y="280" as="sourcePoint" />
            <mxPoint x="189" y="280" as="targetPoint" />
            <Array as="points">
              <mxPoint x="179" y="250" />
            </Array>
          </mxGeometry>
        </mxCell>
        <mxCell id="8CifRftzyipBCGloAxg9-16" value="createAuction(details)" style="html=1;verticalAlign=bottom;endArrow=block;curved=0;rounded=0;" edge="1" parent="1" source="8CifRftzyipBCGloAxg9-3" target="8CifRftzyipBCGloAxg9-4">
          <mxGeometry width="80" relative="1" as="geometry">
            <mxPoint x="339" y="280" as="sourcePoint" />
            <mxPoint x="419" y="280" as="targetPoint" />
            <Array as="points">
              <mxPoint x="379" y="280" />
            </Array>
          </mxGeometry>
        </mxCell>
        <mxCell id="8CifRftzyipBCGloAxg9-17" value="validateAuctionSettings()" style="html=1;verticalAlign=bottom;endArrow=block;curved=0;rounded=0;" edge="1" parent="1" target="8CifRftzyipBCGloAxg9-38">
          <mxGeometry width="80" relative="1" as="geometry">
            <mxPoint x="488.5" y="311" as="sourcePoint" />
            <mxPoint x="678.5" y="311" as="targetPoint" />
            <Array as="points">
              <mxPoint x="559" y="311" />
              <mxPoint x="579" y="311" />
            </Array>
          </mxGeometry>
        </mxCell>
        <mxCell id="8CifRftzyipBCGloAxg9-21" value="Validation result" style="html=1;verticalAlign=bottom;endArrow=open;dashed=1;endSize=8;curved=0;rounded=0;" edge="1" parent="1" source="8CifRftzyipBCGloAxg9-5" target="8CifRftzyipBCGloAxg9-4">
          <mxGeometry relative="1" as="geometry">
            <mxPoint x="649" y="360" as="sourcePoint" />
            <mxPoint x="569" y="360" as="targetPoint" />
            <Array as="points">
              <mxPoint x="569" y="360" />
            </Array>
          </mxGeometry>
        </mxCell>
        <mxCell id="8CifRftzyipBCGloAxg9-22" value="Show validation errors" style="html=1;verticalAlign=bottom;endArrow=open;dashed=1;endSize=8;curved=0;rounded=0;" edge="1" parent="1" source="8CifRftzyipBCGloAxg9-4" target="8CifRftzyipBCGloAxg9-3">
          <mxGeometry relative="1" as="geometry">
            <mxPoint x="419" y="470" as="sourcePoint" />
            <mxPoint x="339" y="470" as="targetPoint" />
            <Array as="points">
              <mxPoint x="379" y="420" />
            </Array>
          </mxGeometry>
        </mxCell>
        <mxCell id="8CifRftzyipBCGloAxg9-23" value="Display errors" style="html=1;verticalAlign=bottom;endArrow=open;dashed=1;endSize=8;curved=0;rounded=0;" edge="1" parent="1" source="8CifRftzyipBCGloAxg9-3" target="8CifRftzyipBCGloAxg9-2">
          <mxGeometry relative="1" as="geometry">
            <mxPoint x="239" y="490" as="sourcePoint" />
            <mxPoint x="159" y="490" as="targetPoint" />
            <Array as="points">
              <mxPoint x="179" y="450" />
            </Array>
          </mxGeometry>
        </mxCell>
        <mxCell id="8CifRftzyipBCGloAxg9-24" value="createAuction()" style="html=1;verticalAlign=bottom;endArrow=block;curved=0;rounded=0;" edge="1" parent="1" source="8CifRftzyipBCGloAxg9-4" target="8CifRftzyipBCGloAxg9-5">
          <mxGeometry width="80" relative="1" as="geometry">
            <mxPoint x="509" y="500" as="sourcePoint" />
            <mxPoint x="589" y="500" as="targetPoint" />
            <Array as="points">
              <mxPoint x="579" y="510" />
            </Array>
          </mxGeometry>
        </mxCell>
        <mxCell id="8CifRftzyipBCGloAxg9-25" value="Auction created" style="html=1;verticalAlign=bottom;endArrow=open;dashed=1;endSize=8;curved=0;rounded=0;" edge="1" parent="1">
          <mxGeometry relative="1" as="geometry">
            <mxPoint x="678.5" y="556" as="sourcePoint" />
            <mxPoint x="488.5" y="556" as="targetPoint" />
          </mxGeometry>
        </mxCell>
        <mxCell id="8CifRftzyipBCGloAxg9-26" value="startTimer(auctionId)" style="html=1;verticalAlign=bottom;endArrow=block;curved=0;rounded=0;" edge="1" parent="1" source="8CifRftzyipBCGloAxg9-4">
          <mxGeometry x="-0.5128" width="80" relative="1" as="geometry">
            <mxPoint x="484" y="630" as="sourcePoint" />
            <mxPoint x="874" y="630" as="targetPoint" />
            <mxPoint as="offset" />
          </mxGeometry>
        </mxCell>
        <mxCell id="8CifRftzyipBCGloAxg9-27" value="setStartTime()" style="html=1;verticalAlign=bottom;endArrow=block;curved=0;rounded=0;" edge="1" parent="1" source="8CifRftzyipBCGloAxg9-6" target="8CifRftzyipBCGloAxg9-5">
          <mxGeometry width="80" relative="1" as="geometry">
            <mxPoint x="709" y="780" as="sourcePoint" />
            <mxPoint x="789" y="780" as="targetPoint" />
            <Array as="points">
              <mxPoint x="769" y="690" />
            </Array>
            <mxPoint as="offset" />
          </mxGeometry>
        </mxCell>
        <mxCell id="8CifRftzyipBCGloAxg9-28" value="Success response" style="html=1;verticalAlign=bottom;endArrow=open;dashed=1;endSize=8;curved=0;rounded=0;" edge="1" parent="1" source="8CifRftzyipBCGloAxg9-4" target="8CifRftzyipBCGloAxg9-3">
          <mxGeometry x="0.0047" relative="1" as="geometry">
            <mxPoint x="409" y="860" as="sourcePoint" />
            <mxPoint x="329" y="860" as="targetPoint" />
            <Array as="points">
              <mxPoint x="379" y="730" />
            </Array>
            <mxPoint as="offset" />
          </mxGeometry>
        </mxCell>
        <mxCell id="8CifRftzyipBCGloAxg9-29" value="Show confirmation" style="html=1;verticalAlign=bottom;endArrow=open;dashed=1;endSize=8;curved=0;rounded=0;" edge="1" parent="1" source="8CifRftzyipBCGloAxg9-3" target="8CifRftzyipBCGloAxg9-2">
          <mxGeometry relative="1" as="geometry">
            <mxPoint x="209" y="830" as="sourcePoint" />
            <mxPoint x="129" y="830" as="targetPoint" />
            <Array as="points">
              <mxPoint x="179" y="810" />
            </Array>
          </mxGeometry>
        </mxCell>
        <mxCell id="8CifRftzyipBCGloAxg9-30" value="alt" style="shape=umlFrame;whiteSpace=wrap;html=1;pointerEvents=0;" vertex="1" parent="1">
          <mxGeometry x="9" y="370" width="950" height="470" as="geometry" />
        </mxCell>
        <mxCell id="8CifRftzyipBCGloAxg9-31" value="" style="line;strokeWidth=1;fillColor=none;align=left;verticalAlign=middle;spacingTop=-1;spacingLeft=3;spacingRight=3;rotatable=0;labelPosition=right;points=[];portConstraint=eastwest;strokeColor=inherit;dashed=1;dashPattern=8 8;" vertex="1" parent="1">
          <mxGeometry x="19" y="470" width="940" height="8" as="geometry" />
        </mxCell>
        <mxCell id="8CifRftzyipBCGloAxg9-32" value="&lt;b&gt;[Invalid Settings]&lt;/b&gt;" style="text;html=1;align=center;verticalAlign=middle;resizable=0;points=[];autosize=1;strokeColor=none;fillColor=none;" vertex="1" parent="1">
          <mxGeometry x="80" y="370" width="120" height="30" as="geometry" />
        </mxCell>
        <mxCell id="8CifRftzyipBCGloAxg9-33" value="&lt;b&gt;[Valid settings]&lt;/b&gt;" style="text;html=1;align=center;verticalAlign=middle;resizable=0;points=[];autosize=1;strokeColor=none;fillColor=none;" vertex="1" parent="1">
          <mxGeometry x="85" y="478" width="110" height="30" as="geometry" />
        </mxCell>
        <mxCell id="8CifRftzyipBCGloAxg9-39" value="" style="html=1;points=[[0,0,0,0,5],[0,1,0,0,-5],[1,0,0,0,5],[1,1,0,0,-5]];perimeter=orthogonalPerimeter;outlineConnect=0;targetShapes=umlLifeline;portConstraint=eastwest;newEdgeStyle={&quot;curved&quot;:0,&quot;rounded&quot;:0};" vertex="1" parent="1">
          <mxGeometry x="874" y="600" width="10" height="110" as="geometry" />
        </mxCell>
        <mxCell id="8CifRftzyipBCGloAxg9-40" value="&lt;u&gt;BIDDING PROCESS&lt;/u&gt;" style="text;strokeColor=none;fillColor=none;html=1;fontSize=24;fontStyle=1;verticalAlign=middle;align=center;" vertex="1" parent="1">
          <mxGeometry x="130" y="1040" width="100" height="40" as="geometry" />
        </mxCell>
        <mxCell id="8CifRftzyipBCGloAxg9-42" value="" style="shape=umlLifeline;perimeter=lifelinePerimeter;whiteSpace=wrap;html=1;container=1;dropTarget=0;collapsible=0;recursiveResize=0;outlineConnect=0;portConstraint=eastwest;newEdgeStyle={&quot;curved&quot;:0,&quot;rounded&quot;:0};participant=umlActor;" vertex="1" parent="1">
          <mxGeometry x="80" y="1140" width="20" height="700" as="geometry" />
        </mxCell>
        <mxCell id="8CifRftzyipBCGloAxg9-83" value="" style="html=1;points=[[0,0,0,0,5],[0,1,0,0,-5],[1,0,0,0,5],[1,1,0,0,-5]];perimeter=orthogonalPerimeter;outlineConnect=0;targetShapes=umlLifeline;portConstraint=eastwest;newEdgeStyle={&quot;curved&quot;:0,&quot;rounded&quot;:0};" vertex="1" parent="8CifRftzyipBCGloAxg9-42">
          <mxGeometry x="5" y="60" width="10" height="560" as="geometry" />
        </mxCell>
        <mxCell id="8CifRftzyipBCGloAxg9-43" value="" style="shape=umlLifeline;perimeter=lifelinePerimeter;whiteSpace=wrap;html=1;container=1;dropTarget=0;collapsible=0;recursiveResize=0;outlineConnect=0;portConstraint=eastwest;newEdgeStyle={&quot;curved&quot;:0,&quot;rounded&quot;:0};participant=umlBoundary;" vertex="1" parent="1">
          <mxGeometry x="249" y="1140" width="50" height="700" as="geometry" />
        </mxCell>
        <mxCell id="8CifRftzyipBCGloAxg9-44" value="" style="shape=umlLifeline;perimeter=lifelinePerimeter;whiteSpace=wrap;html=1;container=1;dropTarget=0;collapsible=0;recursiveResize=0;outlineConnect=0;portConstraint=eastwest;newEdgeStyle={&quot;curved&quot;:0,&quot;rounded&quot;:0};participant=umlControl;" vertex="1" parent="1">
          <mxGeometry x="469" y="1140" width="40" height="700" as="geometry" />
        </mxCell>
        <mxCell id="8CifRftzyipBCGloAxg9-86" value="" style="html=1;points=[[0,0,0,0,5],[0,1,0,0,-5],[1,0,0,0,5],[1,1,0,0,-5]];perimeter=orthogonalPerimeter;outlineConnect=0;targetShapes=umlLifeline;portConstraint=eastwest;newEdgeStyle={&quot;curved&quot;:0,&quot;rounded&quot;:0};" vertex="1" parent="8CifRftzyipBCGloAxg9-44">
          <mxGeometry x="16" y="60" width="10" height="490" as="geometry" />
        </mxCell>
        <mxCell id="8CifRftzyipBCGloAxg9-45" value="" style="shape=umlLifeline;perimeter=lifelinePerimeter;whiteSpace=wrap;html=1;container=1;dropTarget=0;collapsible=0;recursiveResize=0;outlineConnect=0;portConstraint=eastwest;newEdgeStyle={&quot;curved&quot;:0,&quot;rounded&quot;:0};participant=umlEntity;" vertex="1" parent="1">
          <mxGeometry x="659" y="1140" width="40" height="700" as="geometry" />
        </mxCell>
        <mxCell id="8CifRftzyipBCGloAxg9-87" value="" style="html=1;points=[[0,0,0,0,5],[0,1,0,0,-5],[1,0,0,0,5],[1,1,0,0,-5]];perimeter=orthogonalPerimeter;outlineConnect=0;targetShapes=umlLifeline;portConstraint=eastwest;newEdgeStyle={&quot;curved&quot;:0,&quot;rounded&quot;:0};" vertex="1" parent="8CifRftzyipBCGloAxg9-45">
          <mxGeometry x="15" y="80" width="10" height="80" as="geometry" />
        </mxCell>
        <mxCell id="8CifRftzyipBCGloAxg9-47" value="" style="shape=umlLifeline;perimeter=lifelinePerimeter;whiteSpace=wrap;html=1;container=1;dropTarget=0;collapsible=0;recursiveResize=0;outlineConnect=0;portConstraint=eastwest;newEdgeStyle={&quot;curved&quot;:0,&quot;rounded&quot;:0};participant=umlEntity;" vertex="1" parent="1">
          <mxGeometry x="859" y="1140" width="40" height="700" as="geometry" />
        </mxCell>
        <mxCell id="8CifRftzyipBCGloAxg9-89" value="" style="html=1;points=[[0,0,0,0,5],[0,1,0,0,-5],[1,0,0,0,5],[1,1,0,0,-5]];perimeter=orthogonalPerimeter;outlineConnect=0;targetShapes=umlLifeline;portConstraint=eastwest;newEdgeStyle={&quot;curved&quot;:0,&quot;rounded&quot;:0};" vertex="1" parent="8CifRftzyipBCGloAxg9-47">
          <mxGeometry x="15" y="138" width="10" height="332" as="geometry" />
        </mxCell>
        <mxCell id="8CifRftzyipBCGloAxg9-48" value="" style="shape=umlLifeline;perimeter=lifelinePerimeter;whiteSpace=wrap;html=1;container=1;dropTarget=0;collapsible=0;recursiveResize=0;outlineConnect=0;portConstraint=eastwest;newEdgeStyle={&quot;curved&quot;:0,&quot;rounded&quot;:0};participant=umlControl;" vertex="1" parent="1">
          <mxGeometry x="1050" y="1140" width="40" height="700" as="geometry" />
        </mxCell>
        <mxCell id="8CifRftzyipBCGloAxg9-49" value="" style="shape=umlLifeline;perimeter=lifelinePerimeter;whiteSpace=wrap;html=1;container=1;dropTarget=0;collapsible=0;recursiveResize=0;outlineConnect=0;portConstraint=eastwest;newEdgeStyle={&quot;curved&quot;:0,&quot;rounded&quot;:0};participant=umlBoundary;" vertex="1" parent="1">
          <mxGeometry x="1230" y="1140" width="50" height="700" as="geometry" />
        </mxCell>
        <mxCell id="8CifRftzyipBCGloAxg9-50" value="Bidder" style="text;html=1;align=center;verticalAlign=middle;resizable=0;points=[];autosize=1;strokeColor=none;fillColor=none;" vertex="1" parent="1">
          <mxGeometry x="60" y="1108" width="60" height="30" as="geometry" />
        </mxCell>
        <mxCell id="8CifRftzyipBCGloAxg9-51" value="BidInterface" style="text;html=1;align=center;verticalAlign=middle;resizable=0;points=[];autosize=1;strokeColor=none;fillColor=none;" vertex="1" parent="1">
          <mxGeometry x="230" y="1108" width="90" height="30" as="geometry" />
        </mxCell>
        <mxCell id="8CifRftzyipBCGloAxg9-52" value="BiddingController" style="text;html=1;align=center;verticalAlign=middle;resizable=0;points=[];autosize=1;strokeColor=none;fillColor=none;" vertex="1" parent="1">
          <mxGeometry x="429" y="1108" width="120" height="30" as="geometry" />
        </mxCell>
        <mxCell id="8CifRftzyipBCGloAxg9-53" value="AuctionListing" style="text;html=1;align=center;verticalAlign=middle;resizable=0;points=[];autosize=1;strokeColor=none;fillColor=none;" vertex="1" parent="1">
          <mxGeometry x="630" y="1108" width="100" height="30" as="geometry" />
        </mxCell>
        <mxCell id="8CifRftzyipBCGloAxg9-54" value="Bid" style="text;html=1;align=center;verticalAlign=middle;resizable=0;points=[];autosize=1;strokeColor=none;fillColor=none;" vertex="1" parent="1">
          <mxGeometry x="859" y="1108" width="40" height="30" as="geometry" />
        </mxCell>
        <mxCell id="8CifRftzyipBCGloAxg9-55" value="NotificationController" style="text;html=1;align=center;verticalAlign=middle;resizable=0;points=[];autosize=1;strokeColor=none;fillColor=none;" vertex="1" parent="1">
          <mxGeometry x="1005" y="1110" width="130" height="30" as="geometry" />
        </mxCell>
        <mxCell id="8CifRftzyipBCGloAxg9-57" value="NotificationInterface" style="text;html=1;align=center;verticalAlign=middle;resizable=0;points=[];autosize=1;strokeColor=none;fillColor=none;" vertex="1" parent="1">
          <mxGeometry x="1200" y="1108" width="130" height="30" as="geometry" />
        </mxCell>
        <mxCell id="8CifRftzyipBCGloAxg9-58" value="Place bid" style="html=1;verticalAlign=bottom;endArrow=block;curved=0;rounded=0;" edge="1" parent="1" source="8CifRftzyipBCGloAxg9-42" target="8CifRftzyipBCGloAxg9-43">
          <mxGeometry width="80" relative="1" as="geometry">
            <mxPoint x="110" y="1210" as="sourcePoint" />
            <mxPoint x="190" y="1210" as="targetPoint" />
            <Array as="points">
              <mxPoint x="180" y="1210" />
            </Array>
          </mxGeometry>
        </mxCell>
        <mxCell id="8CifRftzyipBCGloAxg9-59" value="placeBid(amount)" style="html=1;verticalAlign=bottom;endArrow=block;curved=0;rounded=0;" edge="1" parent="1" source="8CifRftzyipBCGloAxg9-84" target="8CifRftzyipBCGloAxg9-44">
          <mxGeometry width="80" relative="1" as="geometry">
            <mxPoint x="280" y="1240" as="sourcePoint" />
            <mxPoint x="360" y="1240" as="targetPoint" />
            <Array as="points">
              <mxPoint x="380" y="1230" />
            </Array>
          </mxGeometry>
        </mxCell>
        <mxCell id="8CifRftzyipBCGloAxg9-60" value="getCurrentPrice()" style="html=1;verticalAlign=bottom;endArrow=block;curved=0;rounded=0;" edge="1" parent="1" source="8CifRftzyipBCGloAxg9-44" target="8CifRftzyipBCGloAxg9-45">
          <mxGeometry width="80" relative="1" as="geometry">
            <mxPoint x="540" y="1250" as="sourcePoint" />
            <mxPoint x="620" y="1250" as="targetPoint" />
            <Array as="points">
              <mxPoint x="580" y="1250" />
            </Array>
          </mxGeometry>
        </mxCell>
        <mxCell id="8CifRftzyipBCGloAxg9-61" value="Current price" style="html=1;verticalAlign=bottom;endArrow=open;dashed=1;endSize=8;curved=0;rounded=0;" edge="1" parent="1" source="8CifRftzyipBCGloAxg9-45" target="8CifRftzyipBCGloAxg9-44">
          <mxGeometry relative="1" as="geometry">
            <mxPoint x="590" y="1280" as="sourcePoint" />
            <mxPoint x="510" y="1280" as="targetPoint" />
            <Array as="points">
              <mxPoint x="580" y="1280" />
            </Array>
            <mxPoint as="offset" />
          </mxGeometry>
        </mxCell>
        <mxCell id="8CifRftzyipBCGloAxg9-64" value="validateBid(amount)" style="html=1;verticalAlign=bottom;endArrow=block;curved=0;rounded=0;" edge="1" parent="1">
          <mxGeometry width="80" relative="1" as="geometry">
            <mxPoint x="488.5" y="1310" as="sourcePoint" />
            <mxPoint x="878.5" y="1310" as="targetPoint" />
          </mxGeometry>
        </mxCell>
        <mxCell id="8CifRftzyipBCGloAxg9-65" value="Validation failed" style="html=1;verticalAlign=bottom;endArrow=open;dashed=1;endSize=8;curved=0;rounded=0;" edge="1" parent="1" source="8CifRftzyipBCGloAxg9-47" target="8CifRftzyipBCGloAxg9-44">
          <mxGeometry relative="1" as="geometry">
            <mxPoint x="770" y="1360" as="sourcePoint" />
            <mxPoint x="690" y="1360" as="targetPoint" />
            <Array as="points">
              <mxPoint x="680" y="1370" />
            </Array>
            <mxPoint as="offset" />
          </mxGeometry>
        </mxCell>
        <mxCell id="8CifRftzyipBCGloAxg9-66" value="Error response" style="html=1;verticalAlign=bottom;endArrow=open;dashed=1;endSize=8;curved=0;rounded=0;" edge="1" parent="1" source="8CifRftzyipBCGloAxg9-44" target="8CifRftzyipBCGloAxg9-43">
          <mxGeometry relative="1" as="geometry">
            <mxPoint x="410" y="1400" as="sourcePoint" />
            <mxPoint x="330" y="1400" as="targetPoint" />
            <Array as="points">
              <mxPoint x="370" y="1400" />
            </Array>
          </mxGeometry>
        </mxCell>
        <mxCell id="8CifRftzyipBCGloAxg9-67" value="Show error message" style="html=1;verticalAlign=bottom;endArrow=open;dashed=1;endSize=8;curved=0;rounded=0;" edge="1" parent="1">
          <mxGeometry relative="1" as="geometry">
            <mxPoint x="269.5" y="1430" as="sourcePoint" />
            <mxPoint x="89" y="1430" as="targetPoint" />
            <Array as="points">
              <mxPoint x="169.5" y="1430" />
            </Array>
          </mxGeometry>
        </mxCell>
        <mxCell id="8CifRftzyipBCGloAxg9-68" value="Validation passed" style="html=1;verticalAlign=bottom;endArrow=open;dashed=1;endSize=8;curved=0;rounded=0;" edge="1" parent="1" source="8CifRftzyipBCGloAxg9-47" target="8CifRftzyipBCGloAxg9-44">
          <mxGeometry relative="1" as="geometry">
            <mxPoint x="874" y="1489.5" as="sourcePoint" />
            <mxPoint x="484" y="1489.5" as="targetPoint" />
            <Array as="points">
              <mxPoint x="690" y="1500" />
            </Array>
          </mxGeometry>
        </mxCell>
        <mxCell id="8CifRftzyipBCGloAxg9-71" value="createBid()" style="html=1;verticalAlign=bottom;endArrow=block;curved=0;rounded=0;" edge="1" parent="1" source="8CifRftzyipBCGloAxg9-44">
          <mxGeometry width="80" relative="1" as="geometry">
            <mxPoint x="485" y="1540" as="sourcePoint" />
            <mxPoint x="875" y="1540" as="targetPoint" />
            <Array as="points">
              <mxPoint x="760" y="1540" />
            </Array>
          </mxGeometry>
        </mxCell>
        <mxCell id="8CifRftzyipBCGloAxg9-72" value="Bid created" style="html=1;verticalAlign=bottom;endArrow=open;dashed=1;endSize=8;curved=0;rounded=0;" edge="1" parent="1" target="8CifRftzyipBCGloAxg9-44">
          <mxGeometry relative="1" as="geometry">
            <mxPoint x="874" y="1570" as="sourcePoint" />
            <mxPoint x="484" y="1570" as="targetPoint" />
          </mxGeometry>
        </mxCell>
        <mxCell id="8CifRftzyipBCGloAxg9-73" value="updateCurrentPrice()" style="html=1;verticalAlign=bottom;endArrow=block;curved=0;rounded=0;" edge="1" parent="1" source="8CifRftzyipBCGloAxg9-44" target="8CifRftzyipBCGloAxg9-45">
          <mxGeometry width="80" relative="1" as="geometry">
            <mxPoint x="520" y="1620" as="sourcePoint" />
            <mxPoint x="600" y="1620" as="targetPoint" />
            <Array as="points">
              <mxPoint x="580" y="1610" />
            </Array>
            <mxPoint as="offset" />
          </mxGeometry>
        </mxCell>
        <mxCell id="8CifRftzyipBCGloAxg9-74" value="notifyOutbidUsers()" style="html=1;verticalAlign=bottom;endArrow=block;curved=0;rounded=0;" edge="1" parent="1">
          <mxGeometry width="80" relative="1" as="geometry">
            <mxPoint x="488.5" y="1640" as="sourcePoint" />
            <mxPoint x="1069.5" y="1640" as="targetPoint" />
          </mxGeometry>
        </mxCell>
        <mxCell id="8CifRftzyipBCGloAxg9-75" value="sendOutbidNotification()" style="html=1;verticalAlign=bottom;endArrow=block;curved=0;rounded=0;" edge="1" parent="1" source="8CifRftzyipBCGloAxg9-48" target="8CifRftzyipBCGloAxg9-49">
          <mxGeometry width="80" relative="1" as="geometry">
            <mxPoint x="1110" y="1670" as="sourcePoint" />
            <mxPoint x="1190" y="1670" as="targetPoint" />
            <Array as="points">
              <mxPoint x="1150" y="1670" />
            </Array>
          </mxGeometry>
        </mxCell>
        <mxCell id="8CifRftzyipBCGloAxg9-76" value="Show bid confirmation" style="html=1;verticalAlign=bottom;endArrow=open;dashed=1;endSize=8;curved=0;rounded=0;" edge="1" parent="1">
          <mxGeometry relative="1" as="geometry">
            <mxPoint x="1250.18" y="1710" as="sourcePoint" />
            <mxPoint x="85.00352941176465" y="1710" as="targetPoint" />
          </mxGeometry>
        </mxCell>
        <mxCell id="8CifRftzyipBCGloAxg9-77" value="alt" style="shape=umlFrame;whiteSpace=wrap;html=1;pointerEvents=0;" vertex="1" parent="1">
          <mxGeometry x="19" y="1320" width="1321" height="470" as="geometry" />
        </mxCell>
        <mxCell id="8CifRftzyipBCGloAxg9-78" value="" style="line;strokeWidth=1;fillColor=none;align=left;verticalAlign=middle;spacingTop=-1;spacingLeft=3;spacingRight=3;rotatable=0;labelPosition=right;points=[];portConstraint=eastwest;strokeColor=inherit;dashed=1;dashPattern=8 8;" vertex="1" parent="1">
          <mxGeometry x="20" y="1460" width="1320" height="8" as="geometry" />
        </mxCell>
        <mxCell id="8CifRftzyipBCGloAxg9-79" value="&lt;b&gt;[Invalid bid]&lt;/b&gt;" style="text;html=1;align=center;verticalAlign=middle;resizable=0;points=[];autosize=1;strokeColor=none;fillColor=none;" vertex="1" parent="1">
          <mxGeometry x="105" y="1328" width="90" height="30" as="geometry" />
        </mxCell>
        <mxCell id="8CifRftzyipBCGloAxg9-80" value="&lt;b&gt;[Valid bid]&lt;/b&gt;" style="text;html=1;align=center;verticalAlign=middle;resizable=0;points=[];autosize=1;strokeColor=none;fillColor=none;" vertex="1" parent="1">
          <mxGeometry x="110" y="1475" width="80" height="30" as="geometry" />
        </mxCell>
        <mxCell id="8CifRftzyipBCGloAxg9-84" value="" style="html=1;points=[[0,0,0,0,5],[0,1,0,0,-5],[1,0,0,0,5],[1,1,0,0,-5]];perimeter=orthogonalPerimeter;outlineConnect=0;targetShapes=umlLifeline;portConstraint=eastwest;newEdgeStyle={&quot;curved&quot;:0,&quot;rounded&quot;:0};" vertex="1" parent="1">
          <mxGeometry x="269" y="1190" width="10" height="250" as="geometry" />
        </mxCell>
        <mxCell id="8CifRftzyipBCGloAxg9-85" value="" style="html=1;verticalAlign=bottom;endArrow=block;curved=0;rounded=0;" edge="1" parent="1" source="8CifRftzyipBCGloAxg9-43" target="8CifRftzyipBCGloAxg9-84">
          <mxGeometry width="80" relative="1" as="geometry">
            <mxPoint x="273" y="1230" as="sourcePoint" />
            <mxPoint x="489" y="1230" as="targetPoint" />
            <Array as="points" />
          </mxGeometry>
        </mxCell>
        <mxCell id="8CifRftzyipBCGloAxg9-88" value="" style="html=1;points=[[0,0,0,0,5],[0,1,0,0,-5],[1,0,0,0,5],[1,1,0,0,-5]];perimeter=orthogonalPerimeter;outlineConnect=0;targetShapes=umlLifeline;portConstraint=eastwest;newEdgeStyle={&quot;curved&quot;:0,&quot;rounded&quot;:0};" vertex="1" parent="1">
          <mxGeometry x="674" y="1590" width="10" height="40" as="geometry" />
        </mxCell>
        <mxCell id="8CifRftzyipBCGloAxg9-90" value="" style="html=1;points=[[0,0,0,0,5],[0,1,0,0,-5],[1,0,0,0,5],[1,1,0,0,-5]];perimeter=orthogonalPerimeter;outlineConnect=0;targetShapes=umlLifeline;portConstraint=eastwest;newEdgeStyle={&quot;curved&quot;:0,&quot;rounded&quot;:0};" vertex="1" parent="1">
          <mxGeometry x="1065" y="1610" width="10" height="80" as="geometry" />
        </mxCell>
        <mxCell id="8CifRftzyipBCGloAxg9-91" value="" style="html=1;points=[[0,0,0,0,5],[0,1,0,0,-5],[1,0,0,0,5],[1,1,0,0,-5]];perimeter=orthogonalPerimeter;outlineConnect=0;targetShapes=umlLifeline;portConstraint=eastwest;newEdgeStyle={&quot;curved&quot;:0,&quot;rounded&quot;:0};" vertex="1" parent="1">
          <mxGeometry x="1250" y="1660" width="10" height="80" as="geometry" />
        </mxCell>
        <mxCell id="8CifRftzyipBCGloAxg9-92" value="&lt;u&gt;AUTO_BIDDING SETUP&lt;/u&gt;" style="text;strokeColor=none;fillColor=none;html=1;fontSize=24;fontStyle=1;verticalAlign=middle;align=center;" vertex="1" parent="1">
          <mxGeometry x="160" y="1920" width="100" height="40" as="geometry" />
        </mxCell>
        <mxCell id="8CifRftzyipBCGloAxg9-93" value="" style="shape=umlLifeline;perimeter=lifelinePerimeter;whiteSpace=wrap;html=1;container=1;dropTarget=0;collapsible=0;recursiveResize=0;outlineConnect=0;portConstraint=eastwest;newEdgeStyle={&quot;curved&quot;:0,&quot;rounded&quot;:0};participant=umlActor;size=40;" vertex="1" parent="1">
          <mxGeometry x="89" y="2080" width="20" height="520" as="geometry" />
        </mxCell>
        <mxCell id="8CifRftzyipBCGloAxg9-116" value="" style="html=1;points=[[0,0,0,0,5],[0,1,0,0,-5],[1,0,0,0,5],[1,1,0,0,-5]];perimeter=orthogonalPerimeter;outlineConnect=0;targetShapes=umlLifeline;portConstraint=eastwest;newEdgeStyle={&quot;curved&quot;:0,&quot;rounded&quot;:0};" vertex="1" parent="8CifRftzyipBCGloAxg9-93">
          <mxGeometry x="5" y="60" width="10" height="400" as="geometry" />
        </mxCell>
        <mxCell id="8CifRftzyipBCGloAxg9-94" value="" style="shape=umlLifeline;perimeter=lifelinePerimeter;whiteSpace=wrap;html=1;container=1;dropTarget=0;collapsible=0;recursiveResize=0;outlineConnect=0;portConstraint=eastwest;newEdgeStyle={&quot;curved&quot;:0,&quot;rounded&quot;:0};participant=umlBoundary;" vertex="1" parent="1">
          <mxGeometry x="249" y="2080" width="50" height="520" as="geometry" />
        </mxCell>
        <mxCell id="8CifRftzyipBCGloAxg9-117" value="" style="html=1;points=[[0,0,0,0,5],[0,1,0,0,-5],[1,0,0,0,5],[1,1,0,0,-5]];perimeter=orthogonalPerimeter;outlineConnect=0;targetShapes=umlLifeline;portConstraint=eastwest;newEdgeStyle={&quot;curved&quot;:0,&quot;rounded&quot;:0};" vertex="1" parent="8CifRftzyipBCGloAxg9-94">
          <mxGeometry x="20" y="70" width="10" height="390" as="geometry" />
        </mxCell>
        <mxCell id="8CifRftzyipBCGloAxg9-95" value="" style="shape=umlLifeline;perimeter=lifelinePerimeter;whiteSpace=wrap;html=1;container=1;dropTarget=0;collapsible=0;recursiveResize=0;outlineConnect=0;portConstraint=eastwest;newEdgeStyle={&quot;curved&quot;:0,&quot;rounded&quot;:0};participant=umlControl;" vertex="1" parent="1">
          <mxGeometry x="464" y="2080" width="40" height="520" as="geometry" />
        </mxCell>
        <mxCell id="8CifRftzyipBCGloAxg9-118" value="" style="html=1;points=[[0,0,0,0,5],[0,1,0,0,-5],[1,0,0,0,5],[1,1,0,0,-5]];perimeter=orthogonalPerimeter;outlineConnect=0;targetShapes=umlLifeline;portConstraint=eastwest;newEdgeStyle={&quot;curved&quot;:0,&quot;rounded&quot;:0};" vertex="1" parent="8CifRftzyipBCGloAxg9-95">
          <mxGeometry x="15" y="100" width="10" height="320" as="geometry" />
        </mxCell>
        <mxCell id="8CifRftzyipBCGloAxg9-96" value="" style="shape=umlLifeline;perimeter=lifelinePerimeter;whiteSpace=wrap;html=1;container=1;dropTarget=0;collapsible=0;recursiveResize=0;outlineConnect=0;portConstraint=eastwest;newEdgeStyle={&quot;curved&quot;:0,&quot;rounded&quot;:0};participant=umlEntity;" vertex="1" parent="1">
          <mxGeometry x="674" y="2080" width="40" height="520" as="geometry" />
        </mxCell>
        <mxCell id="8CifRftzyipBCGloAxg9-119" value="" style="html=1;points=[[0,0,0,0,5],[0,1,0,0,-5],[1,0,0,0,5],[1,1,0,0,-5]];perimeter=orthogonalPerimeter;outlineConnect=0;targetShapes=umlLifeline;portConstraint=eastwest;newEdgeStyle={&quot;curved&quot;:0,&quot;rounded&quot;:0};" vertex="1" parent="8CifRftzyipBCGloAxg9-96">
          <mxGeometry x="15" y="120" width="10" height="290" as="geometry" />
        </mxCell>
        <mxCell id="8CifRftzyipBCGloAxg9-97" value="Bidder" style="text;html=1;align=center;verticalAlign=middle;resizable=0;points=[];autosize=1;strokeColor=none;fillColor=none;" vertex="1" parent="1">
          <mxGeometry x="69" y="2050" width="60" height="30" as="geometry" />
        </mxCell>
        <mxCell id="8CifRftzyipBCGloAxg9-98" value="BidInterface" style="text;html=1;align=center;verticalAlign=middle;resizable=0;points=[];autosize=1;strokeColor=none;fillColor=none;" vertex="1" parent="1">
          <mxGeometry x="235" y="2048" width="90" height="30" as="geometry" />
        </mxCell>
        <mxCell id="8CifRftzyipBCGloAxg9-99" value="AutoBidController" style="text;html=1;align=center;verticalAlign=middle;resizable=0;points=[];autosize=1;strokeColor=none;fillColor=none;" vertex="1" parent="1">
          <mxGeometry x="424" y="2048" width="120" height="30" as="geometry" />
        </mxCell>
        <mxCell id="8CifRftzyipBCGloAxg9-100" value="AutoBid" style="text;html=1;align=center;verticalAlign=middle;resizable=0;points=[];autosize=1;strokeColor=none;fillColor=none;" vertex="1" parent="1">
          <mxGeometry x="655" y="2048" width="70" height="30" as="geometry" />
        </mxCell>
        <mxCell id="8CifRftzyipBCGloAxg9-101" value="Setup auto-bid" style="html=1;verticalAlign=bottom;endArrow=block;curved=0;rounded=0;" edge="1" parent="1" source="8CifRftzyipBCGloAxg9-93" target="8CifRftzyipBCGloAxg9-94">
          <mxGeometry width="80" relative="1" as="geometry">
            <mxPoint x="110" y="2160" as="sourcePoint" />
            <mxPoint x="190" y="2160" as="targetPoint" />
            <Array as="points">
              <mxPoint x="180" y="2160" />
            </Array>
          </mxGeometry>
        </mxCell>
        <mxCell id="8CifRftzyipBCGloAxg9-102" value="setAutoBid(maxAmount)" style="html=1;verticalAlign=bottom;endArrow=block;curved=0;rounded=0;" edge="1" parent="1" source="8CifRftzyipBCGloAxg9-94" target="8CifRftzyipBCGloAxg9-95">
          <mxGeometry width="80" relative="1" as="geometry">
            <mxPoint x="300" y="2180" as="sourcePoint" />
            <mxPoint x="380" y="2180" as="targetPoint" />
            <Array as="points">
              <mxPoint x="380" y="2200" />
            </Array>
          </mxGeometry>
        </mxCell>
        <mxCell id="8CifRftzyipBCGloAxg9-103" value="validateSettings()" style="html=1;verticalAlign=bottom;endArrow=block;curved=0;rounded=0;" edge="1" parent="1" source="8CifRftzyipBCGloAxg9-95" target="8CifRftzyipBCGloAxg9-96">
          <mxGeometry width="80" relative="1" as="geometry">
            <mxPoint x="520" y="2230" as="sourcePoint" />
            <mxPoint x="600" y="2230" as="targetPoint" />
            <Array as="points">
              <mxPoint x="580" y="2230" />
            </Array>
          </mxGeometry>
        </mxCell>
        <mxCell id="8CifRftzyipBCGloAxg9-104" value="Validation failed" style="html=1;verticalAlign=bottom;endArrow=open;dashed=1;endSize=8;curved=0;rounded=0;" edge="1" parent="1" source="8CifRftzyipBCGloAxg9-96" target="8CifRftzyipBCGloAxg9-95">
          <mxGeometry relative="1" as="geometry">
            <mxPoint x="600" y="2290" as="sourcePoint" />
            <mxPoint x="520" y="2290" as="targetPoint" />
            <Array as="points">
              <mxPoint x="590" y="2300" />
            </Array>
          </mxGeometry>
        </mxCell>
        <mxCell id="8CifRftzyipBCGloAxg9-105" value="Error response" style="html=1;verticalAlign=bottom;endArrow=open;dashed=1;endSize=8;curved=0;rounded=0;" edge="1" parent="1" source="8CifRftzyipBCGloAxg9-95" target="8CifRftzyipBCGloAxg9-94">
          <mxGeometry relative="1" as="geometry">
            <mxPoint x="410" y="2360" as="sourcePoint" />
            <mxPoint x="340" y="2350" as="targetPoint" />
            <Array as="points">
              <mxPoint x="370" y="2320" />
            </Array>
          </mxGeometry>
        </mxCell>
        <mxCell id="8CifRftzyipBCGloAxg9-106" value="Show error message" style="html=1;verticalAlign=bottom;endArrow=open;dashed=1;endSize=8;curved=0;rounded=0;" edge="1" parent="1" source="8CifRftzyipBCGloAxg9-94" target="8CifRftzyipBCGloAxg9-93">
          <mxGeometry relative="1" as="geometry">
            <mxPoint x="260" y="2350" as="sourcePoint" />
            <mxPoint x="110" y="2350" as="targetPoint" />
          </mxGeometry>
        </mxCell>
        <mxCell id="8CifRftzyipBCGloAxg9-107" value="Validation passed" style="html=1;verticalAlign=bottom;endArrow=open;dashed=1;endSize=8;curved=0;rounded=0;" edge="1" parent="1" source="8CifRftzyipBCGloAxg9-96" target="8CifRftzyipBCGloAxg9-95">
          <mxGeometry x="-0.0002" relative="1" as="geometry">
            <mxPoint x="580" y="2390" as="sourcePoint" />
            <mxPoint x="500" y="2390" as="targetPoint" />
            <Array as="points">
              <mxPoint x="590" y="2390" />
            </Array>
            <mxPoint as="offset" />
          </mxGeometry>
        </mxCell>
        <mxCell id="8CifRftzyipBCGloAxg9-108" value="createAutoBid()" style="html=1;verticalAlign=bottom;endArrow=block;curved=0;rounded=0;" edge="1" parent="1" source="8CifRftzyipBCGloAxg9-95" target="8CifRftzyipBCGloAxg9-96">
          <mxGeometry width="80" relative="1" as="geometry">
            <mxPoint x="540" y="2430" as="sourcePoint" />
            <mxPoint x="620" y="2430" as="targetPoint" />
            <Array as="points">
              <mxPoint x="580" y="2430" />
            </Array>
          </mxGeometry>
        </mxCell>
        <mxCell id="8CifRftzyipBCGloAxg9-109" value="AutoBid created" style="html=1;verticalAlign=bottom;endArrow=open;dashed=1;endSize=8;curved=0;rounded=0;" edge="1" parent="1" source="8CifRftzyipBCGloAxg9-96" target="8CifRftzyipBCGloAxg9-95">
          <mxGeometry relative="1" as="geometry">
            <mxPoint x="620" y="2440" as="sourcePoint" />
            <mxPoint x="540" y="2440" as="targetPoint" />
            <Array as="points">
              <mxPoint x="590" y="2460" />
            </Array>
          </mxGeometry>
        </mxCell>
        <mxCell id="8CifRftzyipBCGloAxg9-110" value="Success response" style="html=1;verticalAlign=bottom;endArrow=open;dashed=1;endSize=8;curved=0;rounded=0;" edge="1" parent="1" source="8CifRftzyipBCGloAxg9-95" target="8CifRftzyipBCGloAxg9-94">
          <mxGeometry relative="1" as="geometry">
            <mxPoint x="400" y="2490" as="sourcePoint" />
            <mxPoint x="320" y="2490" as="targetPoint" />
            <Array as="points">
              <mxPoint x="380" y="2490" />
            </Array>
          </mxGeometry>
        </mxCell>
        <mxCell id="8CifRftzyipBCGloAxg9-111" value="Show confirmation" style="html=1;verticalAlign=bottom;endArrow=open;dashed=1;endSize=8;curved=0;rounded=0;" edge="1" parent="1" source="8CifRftzyipBCGloAxg9-94" target="8CifRftzyipBCGloAxg9-93">
          <mxGeometry relative="1" as="geometry">
            <mxPoint x="200" y="2540" as="sourcePoint" />
            <mxPoint x="120" y="2540" as="targetPoint" />
            <Array as="points">
              <mxPoint x="200" y="2530" />
            </Array>
          </mxGeometry>
        </mxCell>
        <mxCell id="8CifRftzyipBCGloAxg9-112" value="alt" style="shape=umlFrame;whiteSpace=wrap;html=1;pointerEvents=0;" vertex="1" parent="1">
          <mxGeometry x="20" y="2250" width="720" height="320" as="geometry" />
        </mxCell>
        <mxCell id="8CifRftzyipBCGloAxg9-113" value="" style="line;strokeWidth=1;fillColor=none;align=left;verticalAlign=middle;spacingTop=-1;spacingLeft=3;spacingRight=3;rotatable=0;labelPosition=right;points=[];portConstraint=eastwest;strokeColor=inherit;dashed=1;dashPattern=8 8;" vertex="1" parent="1">
          <mxGeometry x="20" y="2360" width="720" height="8" as="geometry" />
        </mxCell>
        <mxCell id="8CifRftzyipBCGloAxg9-114" value="&lt;b&gt;[Invalid settings]&lt;/b&gt;" style="text;html=1;align=center;verticalAlign=middle;resizable=0;points=[];autosize=1;strokeColor=none;fillColor=none;" vertex="1" parent="1">
          <mxGeometry x="90" y="2250" width="120" height="30" as="geometry" />
        </mxCell>
        <mxCell id="8CifRftzyipBCGloAxg9-115" value="&lt;b&gt;[Valid settings]&lt;/b&gt;" style="text;html=1;align=center;verticalAlign=middle;resizable=0;points=[];autosize=1;strokeColor=none;fillColor=none;" vertex="1" parent="1">
          <mxGeometry x="95" y="2368" width="110" height="30" as="geometry" />
        </mxCell>
        <mxCell id="8CifRftzyipBCGloAxg9-120" value="&lt;u&gt;AUTO-BIDDING PROCESS&lt;/u&gt;" style="text;strokeColor=none;fillColor=none;html=1;fontSize=24;fontStyle=1;verticalAlign=middle;align=center;" vertex="1" parent="1">
          <mxGeometry x="160" y="2680" width="100" height="40" as="geometry" />
        </mxCell>
        <mxCell id="8CifRftzyipBCGloAxg9-121" value="" style="shape=umlLifeline;perimeter=lifelinePerimeter;whiteSpace=wrap;html=1;container=1;dropTarget=0;collapsible=0;recursiveResize=0;outlineConnect=0;portConstraint=eastwest;newEdgeStyle={&quot;curved&quot;:0,&quot;rounded&quot;:0};participant=umlControl;" vertex="1" parent="1">
          <mxGeometry x="85" y="2790" width="40" height="450" as="geometry" />
        </mxCell>
        <mxCell id="8CifRftzyipBCGloAxg9-149" value="" style="html=1;points=[[0,0,0,0,5],[0,1,0,0,-5],[1,0,0,0,5],[1,1,0,0,-5]];perimeter=orthogonalPerimeter;outlineConnect=0;targetShapes=umlLifeline;portConstraint=eastwest;newEdgeStyle={&quot;curved&quot;:0,&quot;rounded&quot;:0};" vertex="1" parent="8CifRftzyipBCGloAxg9-121">
          <mxGeometry x="14" y="53" width="10" height="367" as="geometry" />
        </mxCell>
        <mxCell id="8CifRftzyipBCGloAxg9-122" value="" style="shape=umlLifeline;perimeter=lifelinePerimeter;whiteSpace=wrap;html=1;container=1;dropTarget=0;collapsible=0;recursiveResize=0;outlineConnect=0;portConstraint=eastwest;newEdgeStyle={&quot;curved&quot;:0,&quot;rounded&quot;:0};participant=umlControl;" vertex="1" parent="1">
          <mxGeometry x="255" y="2790" width="40" height="450" as="geometry" />
        </mxCell>
        <mxCell id="8CifRftzyipBCGloAxg9-150" value="" style="html=1;points=[[0,0,0,0,5],[0,1,0,0,-5],[1,0,0,0,5],[1,1,0,0,-5]];perimeter=orthogonalPerimeter;outlineConnect=0;targetShapes=umlLifeline;portConstraint=eastwest;newEdgeStyle={&quot;curved&quot;:0,&quot;rounded&quot;:0};" vertex="1" parent="8CifRftzyipBCGloAxg9-122">
          <mxGeometry x="15" y="60" width="10" height="140" as="geometry" />
        </mxCell>
        <mxCell id="8CifRftzyipBCGloAxg9-123" value="" style="shape=umlLifeline;perimeter=lifelinePerimeter;whiteSpace=wrap;html=1;container=1;dropTarget=0;collapsible=0;recursiveResize=0;outlineConnect=0;portConstraint=eastwest;newEdgeStyle={&quot;curved&quot;:0,&quot;rounded&quot;:0};participant=umlEntity;" vertex="1" parent="1">
          <mxGeometry x="464" y="2790" width="40" height="450" as="geometry" />
        </mxCell>
        <mxCell id="8CifRftzyipBCGloAxg9-151" value="" style="html=1;points=[[0,0,0,0,5],[0,1,0,0,-5],[1,0,0,0,5],[1,1,0,0,-5]];perimeter=orthogonalPerimeter;outlineConnect=0;targetShapes=umlLifeline;portConstraint=eastwest;newEdgeStyle={&quot;curved&quot;:0,&quot;rounded&quot;:0};" vertex="1" parent="8CifRftzyipBCGloAxg9-123">
          <mxGeometry x="16" y="85" width="10" height="95" as="geometry" />
        </mxCell>
        <mxCell id="8CifRftzyipBCGloAxg9-124" value="" style="shape=umlLifeline;perimeter=lifelinePerimeter;whiteSpace=wrap;html=1;container=1;dropTarget=0;collapsible=0;recursiveResize=0;outlineConnect=0;portConstraint=eastwest;newEdgeStyle={&quot;curved&quot;:0,&quot;rounded&quot;:0};participant=umlEntity;" vertex="1" parent="1">
          <mxGeometry x="684" y="2790" width="40" height="450" as="geometry" />
        </mxCell>
        <mxCell id="8CifRftzyipBCGloAxg9-125" value="" style="shape=umlLifeline;perimeter=lifelinePerimeter;whiteSpace=wrap;html=1;container=1;dropTarget=0;collapsible=0;recursiveResize=0;outlineConnect=0;portConstraint=eastwest;newEdgeStyle={&quot;curved&quot;:0,&quot;rounded&quot;:0};participant=umlEntity;" vertex="1" parent="1">
          <mxGeometry x="884" y="2790" width="40" height="450" as="geometry" />
        </mxCell>
        <mxCell id="8CifRftzyipBCGloAxg9-126" value="" style="shape=umlLifeline;perimeter=lifelinePerimeter;whiteSpace=wrap;html=1;container=1;dropTarget=0;collapsible=0;recursiveResize=0;outlineConnect=0;portConstraint=eastwest;newEdgeStyle={&quot;curved&quot;:0,&quot;rounded&quot;:0};participant=umlControl;" vertex="1" parent="1">
          <mxGeometry x="1060" y="2790" width="40" height="450" as="geometry" />
        </mxCell>
        <mxCell id="8CifRftzyipBCGloAxg9-127" value="" style="shape=umlLifeline;perimeter=lifelinePerimeter;whiteSpace=wrap;html=1;container=1;dropTarget=0;collapsible=0;recursiveResize=0;outlineConnect=0;portConstraint=eastwest;newEdgeStyle={&quot;curved&quot;:0,&quot;rounded&quot;:0};participant=umlBoundary;" vertex="1" parent="1">
          <mxGeometry x="1230" y="2790" width="50" height="450" as="geometry" />
        </mxCell>
        <mxCell id="8CifRftzyipBCGloAxg9-128" value="BiddingController" style="text;html=1;align=center;verticalAlign=middle;resizable=0;points=[];autosize=1;strokeColor=none;fillColor=none;" vertex="1" parent="1">
          <mxGeometry x="45" y="2760" width="120" height="30" as="geometry" />
        </mxCell>
        <mxCell id="8CifRftzyipBCGloAxg9-129" value="AutoBidController" style="text;html=1;align=center;verticalAlign=middle;resizable=0;points=[];autosize=1;strokeColor=none;fillColor=none;" vertex="1" parent="1">
          <mxGeometry x="224" y="2760" width="120" height="30" as="geometry" />
        </mxCell>
        <mxCell id="8CifRftzyipBCGloAxg9-130" value="AutoBid" style="text;html=1;align=center;verticalAlign=middle;resizable=0;points=[];autosize=1;strokeColor=none;fillColor=none;" vertex="1" parent="1">
          <mxGeometry x="449" y="2760" width="70" height="30" as="geometry" />
        </mxCell>
        <mxCell id="8CifRftzyipBCGloAxg9-131" value="Bid" style="text;html=1;align=center;verticalAlign=middle;resizable=0;points=[];autosize=1;strokeColor=none;fillColor=none;" vertex="1" parent="1">
          <mxGeometry x="684" y="2760" width="40" height="30" as="geometry" />
        </mxCell>
        <mxCell id="8CifRftzyipBCGloAxg9-132" value="AuctionListing" style="text;html=1;align=center;verticalAlign=middle;resizable=0;points=[];autosize=1;strokeColor=none;fillColor=none;" vertex="1" parent="1">
          <mxGeometry x="854" y="2760" width="100" height="30" as="geometry" />
        </mxCell>
        <mxCell id="8CifRftzyipBCGloAxg9-133" value="NotificationController" style="text;html=1;align=center;verticalAlign=middle;resizable=0;points=[];autosize=1;strokeColor=none;fillColor=none;" vertex="1" parent="1">
          <mxGeometry x="1015" y="2760" width="130" height="30" as="geometry" />
        </mxCell>
        <mxCell id="8CifRftzyipBCGloAxg9-134" value="NotificationInterface" style="text;html=1;align=center;verticalAlign=middle;resizable=0;points=[];autosize=1;strokeColor=none;fillColor=none;" vertex="1" parent="1">
          <mxGeometry x="1200" y="2760" width="130" height="30" as="geometry" />
        </mxCell>
        <mxCell id="8CifRftzyipBCGloAxg9-135" value="checkAutoBids()" style="html=1;verticalAlign=bottom;endArrow=block;curved=0;rounded=0;" edge="1" parent="1" source="8CifRftzyipBCGloAxg9-121" target="8CifRftzyipBCGloAxg9-122">
          <mxGeometry width="80" relative="1" as="geometry">
            <mxPoint x="120" y="2870" as="sourcePoint" />
            <mxPoint x="200" y="2870" as="targetPoint" />
            <Array as="points">
              <mxPoint x="190" y="2870" />
            </Array>
          </mxGeometry>
        </mxCell>
        <mxCell id="8CifRftzyipBCGloAxg9-136" value="shoulPlaceBid()" style="html=1;verticalAlign=bottom;endArrow=block;curved=0;rounded=0;" edge="1" parent="1" source="8CifRftzyipBCGloAxg9-122" target="8CifRftzyipBCGloAxg9-123">
          <mxGeometry width="80" relative="1" as="geometry">
            <mxPoint x="290" y="2900" as="sourcePoint" />
            <mxPoint x="370" y="2900" as="targetPoint" />
            <Array as="points">
              <mxPoint x="370" y="2890" />
            </Array>
          </mxGeometry>
        </mxCell>
        <mxCell id="8CifRftzyipBCGloAxg9-137" value="Calculate next bid" style="html=1;verticalAlign=bottom;endArrow=open;dashed=1;endSize=8;curved=0;rounded=0;" edge="1" parent="1" source="8CifRftzyipBCGloAxg9-123" target="8CifRftzyipBCGloAxg9-122">
          <mxGeometry relative="1" as="geometry">
            <mxPoint x="420" y="2920" as="sourcePoint" />
            <mxPoint x="340" y="2920" as="targetPoint" />
            <Array as="points">
              <mxPoint x="370" y="2950" />
            </Array>
          </mxGeometry>
        </mxCell>
        <mxCell id="8CifRftzyipBCGloAxg9-138" value="placeBid(CalculatedAmount)" style="html=1;verticalAlign=bottom;endArrow=block;curved=0;rounded=0;" edge="1" parent="1" source="8CifRftzyipBCGloAxg9-122" target="8CifRftzyipBCGloAxg9-121">
          <mxGeometry width="80" relative="1" as="geometry">
            <mxPoint x="140" y="3010" as="sourcePoint" />
            <mxPoint x="220" y="3010" as="targetPoint" />
            <Array as="points">
              <mxPoint x="190" y="2980" />
            </Array>
          </mxGeometry>
        </mxCell>
        <mxCell id="8CifRftzyipBCGloAxg9-141" value="createBid()" style="html=1;verticalAlign=bottom;endArrow=block;curved=0;rounded=0;" edge="1" parent="1">
          <mxGeometry width="80" relative="1" as="geometry">
            <mxPoint x="104" y="3000" as="sourcePoint" />
            <mxPoint x="703" y="3000" as="targetPoint" />
          </mxGeometry>
        </mxCell>
        <mxCell id="8CifRftzyipBCGloAxg9-142" value="Bid created" style="html=1;verticalAlign=bottom;endArrow=open;dashed=1;endSize=8;curved=0;rounded=0;" edge="1" parent="1">
          <mxGeometry relative="1" as="geometry">
            <mxPoint x="704" y="3030" as="sourcePoint" />
            <mxPoint x="105" y="3030" as="targetPoint" />
          </mxGeometry>
        </mxCell>
        <mxCell id="8CifRftzyipBCGloAxg9-143" value="updateCurrentPrice()" style="html=1;verticalAlign=bottom;endArrow=block;curved=0;rounded=0;" edge="1" parent="1">
          <mxGeometry width="80" relative="1" as="geometry">
            <mxPoint x="104" y="3060" as="sourcePoint" />
            <mxPoint x="903" y="3060" as="targetPoint" />
          </mxGeometry>
        </mxCell>
        <mxCell id="8CifRftzyipBCGloAxg9-144" value="notifyBidPlaces()" style="html=1;verticalAlign=bottom;endArrow=block;curved=0;rounded=0;" edge="1" parent="1" source="8CifRftzyipBCGloAxg9-121" target="8CifRftzyipBCGloAxg9-126">
          <mxGeometry width="80" relative="1" as="geometry">
            <mxPoint x="130" y="3120" as="sourcePoint" />
            <mxPoint x="210" y="3120" as="targetPoint" />
            <Array as="points">
              <mxPoint x="590" y="3090" />
            </Array>
          </mxGeometry>
        </mxCell>
        <mxCell id="8CifRftzyipBCGloAxg9-145" value="sendAutoBidNotification()" style="html=1;verticalAlign=bottom;endArrow=block;curved=0;rounded=0;" edge="1" parent="1" source="8CifRftzyipBCGloAxg9-126" target="8CifRftzyipBCGloAxg9-127">
          <mxGeometry x="0.0057" width="80" relative="1" as="geometry">
            <mxPoint x="1120" y="3140" as="sourcePoint" />
            <mxPoint x="1200" y="3140" as="targetPoint" />
            <Array as="points">
              <mxPoint x="1160" y="3130" />
            </Array>
            <mxPoint as="offset" />
          </mxGeometry>
        </mxCell>
        <mxCell id="8CifRftzyipBCGloAxg9-146" value="alt" style="shape=umlFrame;whiteSpace=wrap;html=1;pointerEvents=0;" vertex="1" parent="1">
          <mxGeometry x="9" y="2900" width="1281" height="287" as="geometry" />
        </mxCell>
        <mxCell id="8CifRftzyipBCGloAxg9-147" value="&lt;b&gt;[Should place bid]&lt;/b&gt;" style="text;html=1;align=center;verticalAlign=middle;resizable=0;points=[];autosize=1;strokeColor=none;fillColor=none;" vertex="1" parent="1">
          <mxGeometry x="105" y="2900" width="130" height="30" as="geometry" />
        </mxCell>
        <mxCell id="8CifRftzyipBCGloAxg9-152" value="" style="html=1;points=[[0,0,0,0,5],[0,1,0,0,-5],[1,0,0,0,5],[1,1,0,0,-5]];perimeter=orthogonalPerimeter;outlineConnect=0;targetShapes=umlLifeline;portConstraint=eastwest;newEdgeStyle={&quot;curved&quot;:0,&quot;rounded&quot;:0};" vertex="1" parent="1">
          <mxGeometry x="699" y="2975" width="10" height="80" as="geometry" />
        </mxCell>
        <mxCell id="8CifRftzyipBCGloAxg9-153" value="" style="html=1;points=[[0,0,0,0,5],[0,1,0,0,-5],[1,0,0,0,5],[1,1,0,0,-5]];perimeter=orthogonalPerimeter;outlineConnect=0;targetShapes=umlLifeline;portConstraint=eastwest;newEdgeStyle={&quot;curved&quot;:0,&quot;rounded&quot;:0};" vertex="1" parent="1">
          <mxGeometry x="899" y="3040" width="10" height="44" as="geometry" />
        </mxCell>
        <mxCell id="8CifRftzyipBCGloAxg9-154" value="" style="html=1;points=[[0,0,0,0,5],[0,1,0,0,-5],[1,0,0,0,5],[1,1,0,0,-5]];perimeter=orthogonalPerimeter;outlineConnect=0;targetShapes=umlLifeline;portConstraint=eastwest;newEdgeStyle={&quot;curved&quot;:0,&quot;rounded&quot;:0};" vertex="1" parent="1">
          <mxGeometry x="1075" y="3070" width="10" height="50" as="geometry" />
        </mxCell>
        <mxCell id="8CifRftzyipBCGloAxg9-155" value="" style="html=1;points=[[0,0,0,0,5],[0,1,0,0,-5],[1,0,0,0,5],[1,1,0,0,-5]];perimeter=orthogonalPerimeter;outlineConnect=0;targetShapes=umlLifeline;portConstraint=eastwest;newEdgeStyle={&quot;curved&quot;:0,&quot;rounded&quot;:0};" vertex="1" parent="1">
          <mxGeometry x="1251" y="3110" width="10" height="50" as="geometry" />
        </mxCell>
        <mxCell id="8CifRftzyipBCGloAxg9-156" value="&lt;u&gt;AUCTION END PROCESS&lt;/u&gt;" style="text;strokeColor=none;fillColor=none;html=1;fontSize=24;fontStyle=1;verticalAlign=middle;align=center;" vertex="1" parent="1">
          <mxGeometry x="169" y="3360" width="100" height="40" as="geometry" />
        </mxCell>
        <mxCell id="8CifRftzyipBCGloAxg9-157" value="" style="shape=umlLifeline;perimeter=lifelinePerimeter;whiteSpace=wrap;html=1;container=1;dropTarget=0;collapsible=0;recursiveResize=0;outlineConnect=0;portConstraint=eastwest;newEdgeStyle={&quot;curved&quot;:0,&quot;rounded&quot;:0};participant=umlControl;" vertex="1" parent="1">
          <mxGeometry x="89" y="3480" width="40" height="380" as="geometry" />
        </mxCell>
        <mxCell id="8CifRftzyipBCGloAxg9-186" value="" style="html=1;points=[[0,0,0,0,5],[0,1,0,0,-5],[1,0,0,0,5],[1,1,0,0,-5]];perimeter=orthogonalPerimeter;outlineConnect=0;targetShapes=umlLifeline;portConstraint=eastwest;newEdgeStyle={&quot;curved&quot;:0,&quot;rounded&quot;:0};" vertex="1" parent="8CifRftzyipBCGloAxg9-157">
          <mxGeometry x="15" y="63" width="10" height="117" as="geometry" />
        </mxCell>
        <mxCell id="8CifRftzyipBCGloAxg9-158" value="" style="shape=umlLifeline;perimeter=lifelinePerimeter;whiteSpace=wrap;html=1;container=1;dropTarget=0;collapsible=0;recursiveResize=0;outlineConnect=0;portConstraint=eastwest;newEdgeStyle={&quot;curved&quot;:0,&quot;rounded&quot;:0};participant=umlEntity;" vertex="1" parent="1">
          <mxGeometry x="255" y="3480" width="40" height="380" as="geometry" />
        </mxCell>
        <mxCell id="8CifRftzyipBCGloAxg9-187" value="" style="html=1;points=[[0,0,0,0,5],[0,1,0,0,-5],[1,0,0,0,5],[1,1,0,0,-5]];perimeter=orthogonalPerimeter;outlineConnect=0;targetShapes=umlLifeline;portConstraint=eastwest;newEdgeStyle={&quot;curved&quot;:0,&quot;rounded&quot;:0};" vertex="1" parent="8CifRftzyipBCGloAxg9-158">
          <mxGeometry x="14" y="70" width="10" height="80" as="geometry" />
        </mxCell>
        <mxCell id="8CifRftzyipBCGloAxg9-159" value="" style="shape=umlLifeline;perimeter=lifelinePerimeter;whiteSpace=wrap;html=1;container=1;dropTarget=0;collapsible=0;recursiveResize=0;outlineConnect=0;portConstraint=eastwest;newEdgeStyle={&quot;curved&quot;:0,&quot;rounded&quot;:0};participant=umlControl;" vertex="1" parent="1">
          <mxGeometry x="464" y="3480" width="40" height="380" as="geometry" />
        </mxCell>
        <mxCell id="8CifRftzyipBCGloAxg9-160" value="" style="shape=umlLifeline;perimeter=lifelinePerimeter;whiteSpace=wrap;html=1;container=1;dropTarget=0;collapsible=0;recursiveResize=0;outlineConnect=0;portConstraint=eastwest;newEdgeStyle={&quot;curved&quot;:0,&quot;rounded&quot;:0};participant=umlControl;" vertex="1" parent="1">
          <mxGeometry x="684" y="3480" width="40" height="380" as="geometry" />
        </mxCell>
        <mxCell id="8CifRftzyipBCGloAxg9-161" value="" style="shape=umlLifeline;perimeter=lifelinePerimeter;whiteSpace=wrap;html=1;container=1;dropTarget=0;collapsible=0;recursiveResize=0;outlineConnect=0;portConstraint=eastwest;newEdgeStyle={&quot;curved&quot;:0,&quot;rounded&quot;:0};participant=umlControl;" vertex="1" parent="1">
          <mxGeometry x="884" y="3480" width="40" height="380" as="geometry" />
        </mxCell>
        <mxCell id="8CifRftzyipBCGloAxg9-162" value="" style="shape=umlLifeline;perimeter=lifelinePerimeter;whiteSpace=wrap;html=1;container=1;dropTarget=0;collapsible=0;recursiveResize=0;outlineConnect=0;portConstraint=eastwest;newEdgeStyle={&quot;curved&quot;:0,&quot;rounded&quot;:0};participant=umlBoundary;" vertex="1" parent="1">
          <mxGeometry x="1060" y="3480" width="50" height="380" as="geometry" />
        </mxCell>
        <mxCell id="8CifRftzyipBCGloAxg9-163" value="TimerController" style="text;html=1;align=center;verticalAlign=middle;resizable=0;points=[];autosize=1;strokeColor=none;fillColor=none;" vertex="1" parent="1">
          <mxGeometry x="59" y="3450" width="110" height="30" as="geometry" />
        </mxCell>
        <mxCell id="8CifRftzyipBCGloAxg9-164" value="AuctionListing" style="text;html=1;align=center;verticalAlign=middle;resizable=0;points=[];autosize=1;strokeColor=none;fillColor=none;" vertex="1" parent="1">
          <mxGeometry x="220" y="3448" width="100" height="30" as="geometry" />
        </mxCell>
        <mxCell id="8CifRftzyipBCGloAxg9-165" value="AuctionController" style="text;html=1;align=center;verticalAlign=middle;resizable=0;points=[];autosize=1;strokeColor=none;fillColor=none;" vertex="1" parent="1">
          <mxGeometry x="420" y="3448" width="120" height="30" as="geometry" />
        </mxCell>
        <mxCell id="8CifRftzyipBCGloAxg9-166" value="BiddingController" style="text;html=1;align=center;verticalAlign=middle;resizable=0;points=[];autosize=1;strokeColor=none;fillColor=none;" vertex="1" parent="1">
          <mxGeometry x="650" y="3448" width="120" height="30" as="geometry" />
        </mxCell>
        <mxCell id="8CifRftzyipBCGloAxg9-167" value="NotificationController" style="text;html=1;align=center;verticalAlign=middle;resizable=0;points=[];autosize=1;strokeColor=none;fillColor=none;" vertex="1" parent="1">
          <mxGeometry x="835" y="3448" width="130" height="30" as="geometry" />
        </mxCell>
        <mxCell id="8CifRftzyipBCGloAxg9-168" value="NotificationInterface" style="text;html=1;align=center;verticalAlign=middle;resizable=0;points=[];autosize=1;strokeColor=none;fillColor=none;" vertex="1" parent="1">
          <mxGeometry x="1015" y="3448" width="130" height="30" as="geometry" />
        </mxCell>
        <mxCell id="8CifRftzyipBCGloAxg9-169" value="checkAuctionEnd()" style="html=1;verticalAlign=bottom;endArrow=block;curved=0;rounded=0;" edge="1" parent="1" source="8CifRftzyipBCGloAxg9-157" target="8CifRftzyipBCGloAxg9-158">
          <mxGeometry width="80" relative="1" as="geometry">
            <mxPoint x="130" y="3580" as="sourcePoint" />
            <mxPoint x="210" y="3580" as="targetPoint" />
            <Array as="points">
              <mxPoint x="190" y="3560" />
            </Array>
          </mxGeometry>
        </mxCell>
        <mxCell id="8CifRftzyipBCGloAxg9-170" value="Auction complete" style="html=1;verticalAlign=bottom;endArrow=open;dashed=1;endSize=8;curved=0;rounded=0;" edge="1" parent="1" source="8CifRftzyipBCGloAxg9-158" target="8CifRftzyipBCGloAxg9-157">
          <mxGeometry relative="1" as="geometry">
            <mxPoint x="230" y="3610" as="sourcePoint" />
            <mxPoint x="150" y="3610" as="targetPoint" />
            <Array as="points">
              <mxPoint x="200" y="3620" />
            </Array>
          </mxGeometry>
        </mxCell>
        <mxCell id="8CifRftzyipBCGloAxg9-171" value="handleAuctionEnd()" style="html=1;verticalAlign=bottom;endArrow=block;curved=0;rounded=0;" edge="1" parent="1">
          <mxGeometry x="-0.0028" width="80" relative="1" as="geometry">
            <mxPoint x="109.00352941176465" y="3650" as="sourcePoint" />
            <mxPoint x="484.18" y="3650" as="targetPoint" />
            <mxPoint as="offset" />
          </mxGeometry>
        </mxCell>
        <mxCell id="8CifRftzyipBCGloAxg9-172" value="determineWinner()" style="html=1;verticalAlign=bottom;endArrow=block;curved=0;rounded=0;" edge="1" parent="1" source="8CifRftzyipBCGloAxg9-159" target="8CifRftzyipBCGloAxg9-160">
          <mxGeometry width="80" relative="1" as="geometry">
            <mxPoint x="520" y="3680" as="sourcePoint" />
            <mxPoint x="600" y="3680" as="targetPoint" />
            <Array as="points">
              <mxPoint x="590" y="3670" />
            </Array>
          </mxGeometry>
        </mxCell>
        <mxCell id="8CifRftzyipBCGloAxg9-173" value="Winner details" style="html=1;verticalAlign=bottom;endArrow=open;dashed=1;endSize=8;curved=0;rounded=0;" edge="1" parent="1" source="8CifRftzyipBCGloAxg9-160" target="8CifRftzyipBCGloAxg9-159">
          <mxGeometry relative="1" as="geometry">
            <mxPoint x="610" y="3710" as="sourcePoint" />
            <mxPoint x="530" y="3710" as="targetPoint" />
            <Array as="points">
              <mxPoint x="590" y="3700" />
            </Array>
          </mxGeometry>
        </mxCell>
        <mxCell id="8CifRftzyipBCGloAxg9-174" value="notifyWinnerandSeller()" style="html=1;verticalAlign=bottom;endArrow=block;curved=0;rounded=0;" edge="1" parent="1" source="8CifRftzyipBCGloAxg9-159" target="8CifRftzyipBCGloAxg9-161">
          <mxGeometry width="80" relative="1" as="geometry">
            <mxPoint x="500" y="3740" as="sourcePoint" />
            <mxPoint x="580" y="3740" as="targetPoint" />
            <Array as="points">
              <mxPoint x="680" y="3730" />
            </Array>
          </mxGeometry>
        </mxCell>
        <mxCell id="8CifRftzyipBCGloAxg9-175" value="sendWinnerNotifications()" style="html=1;verticalAlign=bottom;endArrow=block;curved=0;rounded=0;" edge="1" parent="1" source="8CifRftzyipBCGloAxg9-161" target="8CifRftzyipBCGloAxg9-162">
          <mxGeometry width="80" relative="1" as="geometry">
            <mxPoint x="920" y="3760" as="sourcePoint" />
            <mxPoint x="1000" y="3760" as="targetPoint" />
            <Array as="points">
              <mxPoint x="990" y="3760" />
            </Array>
          </mxGeometry>
        </mxCell>
        <mxCell id="8CifRftzyipBCGloAxg9-177" value="sendSellerNotifications()" style="html=1;verticalAlign=bottom;endArrow=block;curved=0;rounded=0;" edge="1" parent="1" source="8CifRftzyipBCGloAxg9-161" target="8CifRftzyipBCGloAxg9-162">
          <mxGeometry width="80" relative="1" as="geometry">
            <mxPoint x="970" y="3600" as="sourcePoint" />
            <mxPoint x="1050" y="3600" as="targetPoint" />
            <Array as="points">
              <mxPoint x="1000" y="3780" />
            </Array>
          </mxGeometry>
        </mxCell>
        <mxCell id="8CifRftzyipBCGloAxg9-178" value="updateAuctionStatus()" style="html=1;verticalAlign=bottom;endArrow=block;curved=0;rounded=0;" edge="1" parent="1" source="8CifRftzyipBCGloAxg9-159" target="8CifRftzyipBCGloAxg9-158">
          <mxGeometry width="80" relative="1" as="geometry">
            <mxPoint x="320" y="3780" as="sourcePoint" />
            <mxPoint x="400" y="3780" as="targetPoint" />
            <Array as="points">
              <mxPoint x="380" y="3810" />
            </Array>
          </mxGeometry>
        </mxCell>
        <mxCell id="8CifRftzyipBCGloAxg9-179" value="alt" style="shape=umlFrame;whiteSpace=wrap;html=1;pointerEvents=0;" vertex="1" parent="1">
          <mxGeometry x="30" y="3570" width="1130" height="260" as="geometry" />
        </mxCell>
        <mxCell id="8CifRftzyipBCGloAxg9-180" value="&lt;b&gt;[Auction ended]&lt;/b&gt;" style="text;html=1;align=center;verticalAlign=middle;resizable=0;points=[];autosize=1;strokeColor=none;fillColor=none;" vertex="1" parent="1">
          <mxGeometry x="105" y="3568" width="110" height="30" as="geometry" />
        </mxCell>
        <mxCell id="8CifRftzyipBCGloAxg9-181" value="&lt;u&gt;REAL-TIME UPDATES&lt;/u&gt;" style="text;strokeColor=none;fillColor=none;html=1;fontSize=24;fontStyle=1;verticalAlign=middle;align=center;" vertex="1" parent="1">
          <mxGeometry x="149" y="3970" width="100" height="40" as="geometry" />
        </mxCell>
        <mxCell id="8CifRftzyipBCGloAxg9-183" value="" style="shape=umlLifeline;perimeter=lifelinePerimeter;whiteSpace=wrap;html=1;container=1;dropTarget=0;collapsible=0;recursiveResize=0;outlineConnect=0;portConstraint=eastwest;newEdgeStyle={&quot;curved&quot;:0,&quot;rounded&quot;:0};participant=umlActor;" vertex="1" parent="1">
          <mxGeometry x="109" y="4130" width="20" height="300" as="geometry" />
        </mxCell>
        <mxCell id="8CifRftzyipBCGloAxg9-203" value="" style="html=1;points=[[0,0,0,0,5],[0,1,0,0,-5],[1,0,0,0,5],[1,1,0,0,-5]];perimeter=orthogonalPerimeter;outlineConnect=0;targetShapes=umlLifeline;portConstraint=eastwest;newEdgeStyle={&quot;curved&quot;:0,&quot;rounded&quot;:0};" vertex="1" parent="8CifRftzyipBCGloAxg9-183">
          <mxGeometry x="6" y="70" width="10" height="200" as="geometry" />
        </mxCell>
        <mxCell id="8CifRftzyipBCGloAxg9-184" value="" style="shape=umlLifeline;perimeter=lifelinePerimeter;whiteSpace=wrap;html=1;container=1;dropTarget=0;collapsible=0;recursiveResize=0;outlineConnect=0;portConstraint=eastwest;newEdgeStyle={&quot;curved&quot;:0,&quot;rounded&quot;:0};participant=umlControl;" vertex="1" parent="1">
          <mxGeometry x="269" y="4130" width="40" height="300" as="geometry" />
        </mxCell>
        <mxCell id="8CifRftzyipBCGloAxg9-204" value="" style="html=1;points=[[0,0,0,0,5],[0,1,0,0,-5],[1,0,0,0,5],[1,1,0,0,-5]];perimeter=orthogonalPerimeter;outlineConnect=0;targetShapes=umlLifeline;portConstraint=eastwest;newEdgeStyle={&quot;curved&quot;:0,&quot;rounded&quot;:0};" vertex="1" parent="8CifRftzyipBCGloAxg9-184">
          <mxGeometry x="16" y="60" width="10" height="180" as="geometry" />
        </mxCell>
        <mxCell id="8CifRftzyipBCGloAxg9-188" value="" style="html=1;points=[[0,0,0,0,5],[0,1,0,0,-5],[1,0,0,0,5],[1,1,0,0,-5]];perimeter=orthogonalPerimeter;outlineConnect=0;targetShapes=umlLifeline;portConstraint=eastwest;newEdgeStyle={&quot;curved&quot;:0,&quot;rounded&quot;:0};" vertex="1" parent="1">
          <mxGeometry x="270" y="3790" width="10" height="40" as="geometry" />
        </mxCell>
        <mxCell id="8CifRftzyipBCGloAxg9-189" value="" style="html=1;points=[[0,0,0,0,5],[0,1,0,0,-5],[1,0,0,0,5],[1,1,0,0,-5]];perimeter=orthogonalPerimeter;outlineConnect=0;targetShapes=umlLifeline;portConstraint=eastwest;newEdgeStyle={&quot;curved&quot;:0,&quot;rounded&quot;:0};" vertex="1" parent="1">
          <mxGeometry x="479" y="3630" width="10" height="120" as="geometry" />
        </mxCell>
        <mxCell id="8CifRftzyipBCGloAxg9-190" value="" style="html=1;points=[[0,0,0,0,5],[0,1,0,0,-5],[1,0,0,0,5],[1,1,0,0,-5]];perimeter=orthogonalPerimeter;outlineConnect=0;targetShapes=umlLifeline;portConstraint=eastwest;newEdgeStyle={&quot;curved&quot;:0,&quot;rounded&quot;:0};" vertex="1" parent="1">
          <mxGeometry x="699" y="3640" width="10" height="80" as="geometry" />
        </mxCell>
        <mxCell id="8CifRftzyipBCGloAxg9-191" value="" style="html=1;points=[[0,0,0,0,5],[0,1,0,0,-5],[1,0,0,0,5],[1,1,0,0,-5]];perimeter=orthogonalPerimeter;outlineConnect=0;targetShapes=umlLifeline;portConstraint=eastwest;newEdgeStyle={&quot;curved&quot;:0,&quot;rounded&quot;:0};" vertex="1" parent="1">
          <mxGeometry x="899" y="3720" width="10" height="80" as="geometry" />
        </mxCell>
        <mxCell id="8CifRftzyipBCGloAxg9-192" value="" style="html=1;points=[[0,0,0,0,5],[0,1,0,0,-5],[1,0,0,0,5],[1,1,0,0,-5]];perimeter=orthogonalPerimeter;outlineConnect=0;targetShapes=umlLifeline;portConstraint=eastwest;newEdgeStyle={&quot;curved&quot;:0,&quot;rounded&quot;:0};" vertex="1" parent="1">
          <mxGeometry x="1080" y="3740" width="10" height="60" as="geometry" />
        </mxCell>
        <mxCell id="8CifRftzyipBCGloAxg9-193" value="" style="shape=umlLifeline;perimeter=lifelinePerimeter;whiteSpace=wrap;html=1;container=1;dropTarget=0;collapsible=0;recursiveResize=0;outlineConnect=0;portConstraint=eastwest;newEdgeStyle={&quot;curved&quot;:0,&quot;rounded&quot;:0};participant=umlBoundary;" vertex="1" parent="1">
          <mxGeometry x="449" y="4130" width="50" height="300" as="geometry" />
        </mxCell>
        <mxCell id="8CifRftzyipBCGloAxg9-205" value="" style="html=1;points=[[0,0,0,0,5],[0,1,0,0,-5],[1,0,0,0,5],[1,1,0,0,-5]];perimeter=orthogonalPerimeter;outlineConnect=0;targetShapes=umlLifeline;portConstraint=eastwest;newEdgeStyle={&quot;curved&quot;:0,&quot;rounded&quot;:0};" vertex="1" parent="8CifRftzyipBCGloAxg9-193">
          <mxGeometry x="21" y="65" width="10" height="210" as="geometry" />
        </mxCell>
        <mxCell id="8CifRftzyipBCGloAxg9-194" value="Bidder" style="text;html=1;align=center;verticalAlign=middle;resizable=0;points=[];autosize=1;strokeColor=none;fillColor=none;" vertex="1" parent="1">
          <mxGeometry x="89" y="4100" width="60" height="30" as="geometry" />
        </mxCell>
        <mxCell id="8CifRftzyipBCGloAxg9-195" value="NotificationController" style="text;html=1;align=center;verticalAlign=middle;resizable=0;points=[];autosize=1;strokeColor=none;fillColor=none;" vertex="1" parent="1">
          <mxGeometry x="225" y="4098" width="130" height="30" as="geometry" />
        </mxCell>
        <mxCell id="8CifRftzyipBCGloAxg9-196" value="NotificationInterface" style="text;html=1;align=center;verticalAlign=middle;resizable=0;points=[];autosize=1;strokeColor=none;fillColor=none;" vertex="1" parent="1">
          <mxGeometry x="414" y="4098" width="130" height="30" as="geometry" />
        </mxCell>
        <mxCell id="8CifRftzyipBCGloAxg9-197" value="broadcastPriceUpdates()" style="html=1;verticalAlign=bottom;endArrow=block;curved=0;rounded=0;" edge="1" parent="1" source="8CifRftzyipBCGloAxg9-184" target="8CifRftzyipBCGloAxg9-193">
          <mxGeometry x="0.0054" width="80" relative="1" as="geometry">
            <mxPoint x="300" y="4190" as="sourcePoint" />
            <mxPoint x="380" y="4190" as="targetPoint" />
            <Array as="points">
              <mxPoint x="370" y="4210" />
            </Array>
            <mxPoint as="offset" />
          </mxGeometry>
        </mxCell>
        <mxCell id="8CifRftzyipBCGloAxg9-198" value="updateTimeRemaining()" style="html=1;verticalAlign=bottom;endArrow=block;curved=0;rounded=0;" edge="1" parent="1">
          <mxGeometry x="0.0054" width="80" relative="1" as="geometry">
            <mxPoint x="288.5" y="4280" as="sourcePoint" />
            <mxPoint x="473.5" y="4280" as="targetPoint" />
            <Array as="points" />
            <mxPoint as="offset" />
          </mxGeometry>
        </mxCell>
        <mxCell id="8CifRftzyipBCGloAxg9-199" value="showBidHistory()" style="html=1;verticalAlign=bottom;endArrow=block;curved=0;rounded=0;" edge="1" parent="1">
          <mxGeometry x="0.0054" width="80" relative="1" as="geometry">
            <mxPoint x="288.5" y="4356" as="sourcePoint" />
            <mxPoint x="473.5" y="4356" as="targetPoint" />
            <Array as="points">
              <mxPoint x="380" y="4356" />
            </Array>
            <mxPoint as="offset" />
          </mxGeometry>
        </mxCell>
        <mxCell id="8CifRftzyipBCGloAxg9-200" value="Update current price" style="html=1;verticalAlign=bottom;endArrow=open;dashed=1;endSize=8;curved=0;rounded=0;" edge="1" parent="1">
          <mxGeometry relative="1" as="geometry">
            <mxPoint x="475" y="4240" as="sourcePoint" />
            <mxPoint x="120" y="4240" as="targetPoint" />
          </mxGeometry>
        </mxCell>
        <mxCell id="8CifRftzyipBCGloAxg9-201" value="Update countdown" style="html=1;verticalAlign=bottom;endArrow=open;dashed=1;endSize=8;curved=0;rounded=0;" edge="1" parent="1">
          <mxGeometry relative="1" as="geometry">
            <mxPoint x="475" y="4310" as="sourcePoint" />
            <mxPoint x="120" y="4310" as="targetPoint" />
          </mxGeometry>
        </mxCell>
        <mxCell id="8CifRftzyipBCGloAxg9-202" value="Update bid history" style="html=1;verticalAlign=bottom;endArrow=open;dashed=1;endSize=8;curved=0;rounded=0;" edge="1" parent="1">
          <mxGeometry relative="1" as="geometry">
            <mxPoint x="475" y="4390" as="sourcePoint" />
            <mxPoint x="120" y="4390" as="targetPoint" />
          </mxGeometry>
        </mxCell>
      </root>
    </mxGraphModel>
  </diagram>
</mxfile>
